HIERARCHY
ROOT pelvis
{
	OFFSET 0.000000 0.000000 0.000000
	CHANNELS 6 Xposition Yposition Zposition Xrotation Yrotation Zrotation
	JOINT l_hip
	{
		OFFSET 0.195211 -0.245059 -0.022011
		CHANNELS 3 Xrotation Yrotation Zrotation
		JOINT l_knee
		{
			OFFSET 0.083896 -0.996307 -0.018298
			CHANNELS 3 Xrotation Yrotation Zrotation
			JOINT l_ankle
			{
				OFFSET -0.031606 -1.048662 -0.119000
				CHANNELS 3 Xrotation Yrotation Zrotation
				JOINT l_foot
				{
					OFFSET 0.063841 -0.149483 0.312863
					CHANNELS 3 Xrotation Yrotation Zrotation
					End Site
					{
						OFFSET 0.000000 0.000000 0.000000
					}
				}
			}
		}
	}
	JOINT r_hip
	{
		OFFSET -0.188785 -0.243354 -0.013119
		CHANNELS 3 Xrotation Yrotation Zrotation
		JOINT r_knee
		{
			OFFSET -0.098896 -1.013926 -0.025127
			CHANNELS 3 Xrotation Yrotation Zrotation
			JOINT r_ankle
			{
				OFFSET 0.038376 -1.049454 -0.114596
				CHANNELS 3 Xrotation Yrotation Zrotation
				JOINT r_foot
				{
					OFFSET -0.060300 -0.126955 0.322518
					CHANNELS 3 Xrotation Yrotation Zrotation
					End Site
					{
						OFFSET 0.000000 0.000000 0.000000
					}
				}
			}
		}
	}
	JOINT spine1
	{
		OFFSET -0.006861 0.282462 -0.060688
		CHANNELS 3 Xrotation Yrotation Zrotation
		JOINT spine2
		{
			OFFSET 0.009796 0.349212 -0.004686
			CHANNELS 3 Xrotation Yrotation Zrotation
			JOINT spine3
			{
				OFFSET 0.005545 0.134239 0.076232
				CHANNELS 3 Xrotation Yrotation Zrotation
				JOINT neck
				{
					OFFSET -0.005369 0.569656 -0.136135
					CHANNELS 3 Xrotation Yrotation Zrotation
					JOINT head
					{
						OFFSET 0.009621 0.170484 0.137338
						CHANNELS 3 Xrotation Yrotation Zrotation
						End Site
						{
							OFFSET 0.000000 0.000000 0.000000
						}
					}
				}
				JOINT l_collar
				{
					OFFSET 0.205981 0.322192 -0.100872
					CHANNELS 3 Xrotation Yrotation Zrotation
					JOINT l_shoulder
					{
						OFFSET 0.233388 0.086823 -0.019950
						CHANNELS 3 Xrotation Yrotation Zrotation
						JOINT l_elbow
						{
							OFFSET 0.687295 -0.032736 -0.075278
							CHANNELS 3 Xrotation Yrotation Zrotation
							JOINT l_wrist
							{
								OFFSET 0.651109 0.024639 0.000120
								CHANNELS 3 Xrotation Yrotation Zrotation
								JOINT l_hand
								{
									OFFSET 0.217934 -0.026487 -0.036124
									CHANNELS 3 Xrotation Yrotation Zrotation
									End Site
									{
										OFFSET 0.000000 0.000000 0.000000
									}
								}
							}
						}
					}
				}
				JOINT r_collar
				{
					OFFSET -0.210726 0.316244 -0.114374
					CHANNELS 3 Xrotation Yrotation Zrotation
					JOINT r_shoulder
					{
						OFFSET -0.244017 0.089684 -0.026814
						CHANNELS 3 Xrotation Yrotation Zrotation
						JOINT r_elbow
						{
							OFFSET -0.672913 -0.035979 -0.055153
							CHANNELS 3 Xrotation Yrotation Zrotation
							JOINT r_wrist
							{
								OFFSET -0.670689 0.023586 -0.009661
								CHANNELS 3 Xrotation Yrotation Zrotation
								JOINT r_hand
								{
									OFFSET -0.219937 -0.019827 -0.028502
									CHANNELS 3 Xrotation Yrotation Zrotation
									End Site
									{
										OFFSET 0.000000 0.000000 0.000000
									}
								}
							}
						}
					}
				}
			}
		}
	}
}
MOTION
Frames: 14
Frame Time: 0.016667
0.000000 0.000000 0.000000 0.000000 0.000000 0.000000 -2.082214 10.057859 26.845759 5.530476 -5.773118 -3.478056 0.000000 0.000000 0.000000 0.000000 0.000000 0.000000 -7.222277 -7.352727 -26.179368 14.397604 4.837759 0.557090 0.000000 0.000000 0.000000 0.000000 0.000000 0.000000 6.716150 -0.378974 0.614779 2.761182 -0.490039 0.760799 2.053304 -1.912725 0.496318 -0.769124 6.089692 4.529510 14.021736 1.565277 -0.814868 6.353315 6.413351 -25.889342 -2.337139 -11.963896 -53.420722 7.927190 -22.977701 3.402614 0.000000 0.000000 0.000000 0.000000 0.000000 0.000000 3.062787 -3.333565 25.953888 2.028770 14.979171 50.424382 -6.419707 23.410712 -5.519188 0.000000 0.000000 0.000000 0.000000 0.000000 0.000000 
0.000000 0.000000 0.000000 0.000000 0.000000 0.000000 -2.159397 10.060053 26.902879 5.696712 -5.830182 -3.498026 0.000000 0.000000 0.000000 0.000000 0.000000 0.000000 -7.500280 -7.173517 -26.195428 15.022923 4.937384 0.546119 0.000000 0.000000 0.000000 0.000000 0.000000 0.000000 6.835734 -0.464729 0.603500 2.752783 -0.502303 0.768725 2.083097 -1.955476 0.486489 -0.827834 6.141325 4.535158 14.032463 1.555039 -0.848982 6.341358 6.371520 -25.829690 -2.395585 -11.970112 -53.386527 7.849875 -23.045344 3.401164 0.000000 0.000000 0.000000 0.000000 0.000000 0.000000 3.016568 -3.340657 25.908061 2.037915 15.004758 50.454479 -6.392106 23.503600 -5.562795 0.000000 0.000000 0.000000 0.000000 0.000000 0.000000 
0.000000 0.000000 0.000000 0.000000 0.000000 0.000000 -2.196112 10.083730 26.969321 5.840493 -5.903559 -3.520560 0.000000 0.000000 0.000000 0.000000 0.000000 0.000000 -7.700915 -7.032674 -26.213803 15.586497 5.040643 0.544115 0.000000 0.000000 0.000000 0.000000 0.000000 0.000000 6.967134 -0.545149 0.596984 2.786197 -0.538146 0.778143 2.112412 -2.009347 0.483382 -0.893057 6.198316 4.532160 13.987877 1.565146 -0.886152 6.325306 6.287891 -25.777789 -2.462132 -11.983638 -53.342547 7.745380 -23.127182 3.395796 0.000000 0.000000 0.000000 0.000000 0.000000 0.000000 2.964831 -3.318902 25.869703 2.035798 15.024122 50.472694 -6.423517 23.592176 -5.589064 0.000000 0.000000 0.000000 0.000000 0.000000 0.000000 
0.000000 0.000000 0.000000 0.000000 0.000000 0.000000 -2.271119 10.090785 27.031993 5.988103 -5.967012 -3.543922 0.000000 0.000000 0.000000 0.000000 0.000000 0.000000 -7.906667 -6.913565 -26.239687 16.118883 5.112969 0.548186 0.000000 0.000000 0.000000 0.000000 0.000000 0.000000 7.099856 -0.624539 0.590535 2.804454 -0.586206 0.792394 2.130219 -2.071177 0.481243 -0.948421 6.249476 4.521918 13.938090 1.579331 -0.922824 6.309198 6.196233 -25.737097 -2.534698 -12.016678 -53.287826 7.675593 -23.210390 3.403443 0.000000 0.000000 0.000000 0.000000 0.000000 0.000000 2.914450 -3.307750 25.845132 2.046223 15.034596 50.465714 -6.459024 23.685857 -5.596010 0.000000 0.000000 0.000000 0.000000 0.000000 0.000000 
0.000000 0.000000 0.000000 0.000000 0.000000 0.000000 -2.334409 10.105892 27.059246 6.094532 -6.018083 -3.558892 0.000000 0.000000 0.000000 0.000000 0.000000 0.000000 -8.074169 -6.808146 -26.274311 16.578560 5.187008 0.538741 0.000000 0.000000 0.000000 0.000000 0.000000 0.000000 7.218112 -0.727998 0.620242 2.816240 -0.653106 0.788860 2.137669 -2.168053 0.470815 -1.007120 6.337954 4.452476 13.886103 1.679594 -1.046503 6.301650 6.110854 -25.738765 -2.609853 -12.017744 -53.194144 7.626375 -23.274129 3.412569 0.000000 0.000000 0.000000 0.000000 0.000000 0.000000 2.869593 -3.291655 25.790677 2.054464 15.068187 50.474646 -6.492197 23.761262 -5.579451 0.000000 0.000000 0.000000 0.000000 0.000000 0.000000 
0.000000 0.000000 0.000000 0.000000 0.000000 0.000000 -2.413470 10.091679 27.082322 6.186487 -6.056321 -3.561390 0.000000 0.000000 0.000000 0.000000 0.000000 0.000000 -8.206423 -6.719879 -26.284972 16.973465 5.233003 0.520937 0.000000 0.000000 0.000000 0.000000 0.000000 0.000000 7.305006 -0.817302 0.635514 2.826234 -0.735805 0.794142 2.150839 -2.266238 0.466652 -1.045809 6.406288 4.399942 13.876600 1.751372 -1.131570 6.296709 5.994047 -25.719665 -2.695539 -12.056633 -53.127089 7.572930 -23.338424 3.434200 0.000000 0.000000 0.000000 0.000000 0.000000 0.000000 2.827066 -3.273991 25.741668 2.080924 15.083046 50.469125 -6.515794 23.793875 -5.557687 0.000000 0.000000 0.000000 0.000000 0.000000 0.000000 
0.000000 0.000000 0.000000 0.000000 0.000000 0.000000 -2.515124 10.029643 27.108764 6.275982 -6.094126 -3.540951 0.000000 0.000000 0.000000 0.000000 0.000000 0.000000 -8.285188 -6.664947 -26.259526 17.266898 5.236420 0.505483 0.000000 0.000000 0.000000 0.000000 0.000000 0.000000 7.371932 -0.881960 0.621565 2.814328 -0.832674 0.820455 2.172685 -2.352055 0.476486 -1.062154 6.410046 4.399857 13.938676 1.746292 -1.120269 6.294614 5.849926 -25.664696 -2.788633 -12.159010 -53.117075 7.521822 -23.406129 3.471438 0.000000 0.000000 0.000000 0.000000 0.000000 0.000000 2.777806 -3.264167 25.711925 2.137745 15.058025 50.422210 -6.524014 23.741747 -5.523837 0.000000 0.000000 0.000000 0.000000 0.000000 0.000000 
0.000000 0.000000 0.000000 0.000000 0.000000 0.000000 -2.575218 9.966328 27.114872 6.321108 -6.118350 -3.511418 0.000000 0.000000 0.000000 0.000000 0.000000 0.000000 -8.311087 -6.646133 -26.231616 17.457406 5.207515 0.492233 0.000000 0.000000 0.000000 0.000000 0.000000 0.000000 7.392642 -0.928759 0.597030 2.796177 -0.919617 0.852388 2.201898 -2.412202 0.485712 -1.046023 6.366901 4.423203 14.058811 1.691126 -1.050570 6.294732 5.711267 -25.580375 -2.887037 -12.305612 -53.161031 7.494849 -23.460996 3.511186 0.000000 0.000000 0.000000 0.000000 0.000000 0.000000 2.736256 -3.278146 25.695459 2.218606 14.990192 50.340945 -6.520837 23.617833 -5.477150 0.000000 0.000000 0.000000 0.000000 0.000000 0.000000 
0.000000 0.000000 0.000000 0.000000 0.000000 0.000000 -2.554855 9.940721 27.066649 6.304367 -6.130846 -3.479366 0.000000 0.000000 0.000000 0.000000 0.000000 0.000000 -8.276684 -6.656188 -26.235668 17.544155 5.189999 0.467219 0.000000 0.000000 0.000000 0.000000 0.000000 0.000000 7.345788 -0.983658 0.612800 2.782582 -0.995315 0.859184 2.231400 -2.475277 0.478627 -0.987574 6.368570 4.406949 14.208163 1.732484 -1.054958 6.297798 5.616465 -25.506766 -2.991174 -12.435695 -53.218198 7.514809 -23.467295 3.530347 0.000000 0.000000 0.000000 0.000000 0.000000 0.000000 2.717267 -3.317426 25.632406 2.288709 14.926692 50.288198 -6.536981 23.439731 -5.408966 0.000000 0.000000 0.000000 0.000000 0.000000 0.000000 
0.000000 0.000000 0.000000 0.000000 0.000000 0.000000 -2.534382 9.903170 26.993914 6.293703 -6.138103 -3.440885 0.000000 0.000000 0.000000 0.000000 0.000000 0.000000 -8.216431 -6.679082 -26.249659 17.555184 5.188272 0.436920 0.000000 0.000000 0.000000 0.000000 0.000000 0.000000 7.245378 -1.038613 0.644702 2.769218 -1.064190 0.853195 2.258733 -2.540131 0.465278 -0.906134 6.369777 4.391108 14.387733 1.804322 -1.084778 6.316675 5.552734 -25.444686 -3.074868 -12.558137 -53.283460 7.620213 -23.529263 3.582976 0.000000 0.000000 0.000000 0.000000 0.000000 0.000000 2.716952 -3.359949 25.536590 2.352054 14.859961 50.251746 -6.568594 23.221401 -5.324653 0.000000 0.000000 0.000000 0.000000 0.000000 0.000000 
0.000000 0.000000 0.000000 0.000000 0.000000 0.000000 -2.495146 9.890077 26.922482 6.283227 -6.121048 -3.422602 0.000000 0.000000 0.000000 0.000000 0.000000 0.000000 -8.155177 -6.706463 -26.268825 17.518620 5.195545 0.397297 0.000000 0.000000 0.000000 0.000000 0.000000 0.000000 7.160713 -1.089363 0.675133 2.764203 -1.102346 0.840206 2.284994 -2.580167 0.449587 -0.837165 6.329718 4.357171 14.468311 1.858218 -1.089853 6.330129 5.533334 -25.405643 -3.130912 -12.685154 -53.334401 7.803186 -23.700842 3.666141 0.000000 0.000000 0.000000 0.000000 0.000000 0.000000 2.734141 -3.417188 25.462608 2.414834 14.778133 50.178495 -6.546445 23.017836 -5.249666 0.000000 0.000000 0.000000 0.000000 0.000000 0.000000 
0.000000 0.000000 0.000000 0.000000 0.000000 0.000000 -2.479809 9.878081 26.860960 6.306744 -6.083145 -3.424650 0.000000 0.000000 0.000000 0.000000 0.000000 0.000000 -8.106014 -6.746729 -26.300892 17.440891 5.186473 0.367608 0.000000 0.000000 0.000000 0.000000 0.000000 0.000000 7.110742 -1.134814 0.707048 2.738373 -1.121740 0.826605 2.305854 -2.597886 0.432226 -0.801405 6.257738 4.309301 14.492471 1.891834 -1.069541 6.336943 5.542505 -25.380460 -3.168255 -12.820434 -53.383345 8.029883 -23.956393 3.777758 0.000000 0.000000 0.000000 0.000000 0.000000 0.000000 2.758063 -3.489692 25.412609 2.472787 14.673670 50.071434 -6.512901 22.818663 -5.180436 0.000000 0.000000 0.000000 0.000000 0.000000 0.000000 
0.000000 0.000000 0.000000 0.000000 0.000000 0.000000 -2.540281 9.834770 26.802163 6.408600 -6.031863 -3.431617 0.000000 0.000000 0.000000 0.000000 0.000000 0.000000 -8.102293 -6.783236 -26.346277 17.366566 5.165672 0.345014 0.000000 0.000000 0.000000 0.000000 0.000000 0.000000 7.087405 -1.160907 0.745979 2.677756 -1.134464 0.814304 2.320336 -2.608332 0.420040 -0.802866 6.197950 4.256179 14.519624 1.939186 -1.051692 6.321386 5.539805 -25.342359 -3.221712 -12.979300 -53.455641 8.243535 -24.218933 3.878440 0.000000 0.000000 0.000000 0.000000 0.000000 0.000000 2.780950 -3.555939 25.347911 2.519268 14.558994 49.972571 -6.556054 22.639472 -5.111340 0.000000 0.000000 0.000000 0.000000 0.000000 0.000000 
0.000000 0.000000 0.000000 0.000000 0.000000 0.000000 -2.663750 9.762586 26.739960 6.589101 -5.972990 -3.431201 0.000000 0.000000 0.000000 0.000000 0.000000 0.000000 -8.155351 -6.795035 -26.396298 17.341223 5.155304 0.317338 0.000000 0.000000 0.000000 0.000000 0.000000 0.000000 7.086476 -1.164392 0.790734 2.620491 -1.141384 0.802105 2.327540 -2.615006 0.416433 -0.846071 6.155722 4.194962 14.530510 2.000721 -1.042968 6.282885 5.479790 -25.295683 -3.284927 -13.154526 -53.538966 8.420409 -24.494294 3.975351 0.000000 0.000000 0.000000 0.000000 0.000000 0.000000 2.803810 -3.564777 25.268539 2.553555 14.441558 49.885782 -6.685186 22.506093 -5.049565 0.000000 0.000000 0.000000 0.000000 0.000000 0.000000 
